# xmcd
#
# Track frame offsets: 
#        150
#        5000
#        8330
#        13875
#        17385
#        25945
#        37140
#        44198
#        49838
#        58578
#        62865
#        66990
#        70165
#        73340
#        78410
#        84463
#        89913
#        100333
#        106945
#        110275
#        117633
#        124195
#        127448
#        133020
#        137203
#        142580
#        150235
#        157308
#        162095
#        165298
#        171363
#        180093
#        187268
#        203270
#        214463
#        232308
#        238873
#        247985
#        262745
#        274058
#
# Disc length: 3736 seconds
#
# Revision: 2
# Processed by: cddbd v1.5.2PL0 Copyright (c) Steve Scherf et al.
# Submitted via: ExactAudioCopy v0.99pb4
#
DISCID=480e9628
DTITLE=Robert Shaw Festival Singers - Johannes Brahms - Liebeslieder W
DTITLE=altzes and Evening Songs
DYEAR=1993
DGENRE=Classical
TTITLE0=Rede, Mädchen, allzu liebes [Liebeslieder-Waltzer, Op.52, No.1
TTITLE0=]
TTITLE1=Am Gesteine rauscht die Flut [Liebeslieder-Waltzer, Op.52, No.
TTITLE1=2]
TTITLE2=O die Frauen [Liebeslieder-Waltzer, Op.52, No.3]
TTITLE3=Wie des Abends schöne Röte [Liebeslieder-Waltzer, Op.52, No.4]
TTITLE4=Die grüne Hopfenranke [Liebeslieder-Waltzer, Op.52, No.5]
TTITLE5=Ein kleiner, hübscher Vogel [Liebeslieder-Waltzer, Op.52, No.6
TTITLE5=]
TTITLE6=Wohl schön bewandt war es [Liebeslieder-Waltzer, Op.52, No.7]
TTITLE7=Wenn so lind dein Auge mir [Liebeslieder-Waltzer, Op.52, No.8]
TTITLE8=Am Donaustrande [Liebeslieder-Waltzer, Op.52, No.9]
TTITLE9=O, wie sanft die Quelle [Liebeslieder-Waltzer, Op.52, No.10]
TTITLE10=Nein, es ist nicht auszukommen [Liebeslieder-Waltzer, Op.52, 
TTITLE10=No.11]
TTITLE11=Schlosser auf, und mache Schlösser [Liebeslieder-Waltzer, Op.
TTITLE11=52, No.12]
TTITLE12=Vögelein durchrauscht die Luft [Liebeslieder-Waltzer, Op.52, 
TTITLE12=No.13]
TTITLE13=Sieh', wie ist die Welle klar [Liebeslieder-Waltzer, Op.52, N
TTITLE13=o.14]
TTITLE14=Nachtigall, sie singt so schön [Liebeslieder-Waltzer, Op.52, 
TTITLE14=No.15]
TTITLE15=Ein dunkeler Schacht ist Liebe [Liebeslieder-Waltzer, Op.52, 
TTITLE15=No.16]
TTITLE16=Nicht wandle, mein Licht [Liebeslieder-Waltzer, Op.52, No.17]
TTITLE17=Es bebet das Gesträuche [Liebeslieder-Waltzer, Op.52, No.18]
TTITLE18=Verzicht, o Herz, auf Rettung [Neue Liebeslieder-Waltzer, Op.
TTITLE18=65, No.1]
TTITLE19=Finstere Schatten der Nacht [Neue Liebeslieder-Waltzer, Op.65
TTITLE19=, No.2]
TTITLE20=An jeder Hand die Finger [Neue Liebeslieder-Waltzer, Op.65, N
TTITLE20=o.3]
TTITLE21=Ihr schwarzen Augen [Neue Liebeslieder-Waltzer, Op.65, No.4]
TTITLE22=Wahre, wahre deinen Sohn [Neue Liebeslieder-Waltzer, Op.65, N
TTITLE22=o.5]
TTITLE23=Rosen steckt mir an die Mutter [Neue Liebeslieder-Waltzer, Op
TTITLE23=65, No.6]
TTITLE24=Vom Gebirge Well' auf Well' [Neue Liebeslieder-Waltzer, Op.65
TTITLE24=, No.7]
TTITLE25=Weiche Gräser im Revier [Neue Liebeslieder-Waltzer, Op.65, No
TTITLE25=8]
TTITLE26=Nagen am Herzen fühl ich [Neue Liebeslieder-Waltzer, Op.65, N
TTITLE26=o.9]
TTITLE27=Ich kose süss mit der und der [Neue Liebeslieder-Waltzer, Op.
TTITLE27=65, No.10]
TTITLE28=Alles, alles in den Wind [Neue Liebeslieder-Waltzer, Op.65, N
TTITLE28=o.11]
TTITLE29=Schwarzer Wald [Neue Liebeslieder-Waltzer, Op.65, No.12]
TTITLE30=Nein, Geliebter, setze dich [Neue Liebeslieder-Waltzer, Op.65
TTITLE30=, No.13]
TTITLE31=Flammenauge, dunkles Haar [Neue Liebeslieder-Waltzer, Op.65, 
TTITLE31=No.14]
TTITLE32=Nun, ihr Musen, genug! [Neue Liebeslieder-Waltzer, Op.65, No.
TTITLE32=15]
TTITLE33=Waldesnacht [Sieben Abendlieder - Op.62, No.3]
TTITLE34=Der Abend [Sieben Abendlieder - Op.64, No.2]
TTITLE35=Nächtens [Sieben Abendlieder - Op.112, No.2]
TTITLE36=Abendständchen [Sieben Abendlieder - Op.42, No.1]
TTITLE37=O schöne Nacht [Sieben Abendlieder - Op.92, No.1]
TTITLE38=Abendlied [Sieben Abendlieder - Op.92, No.3]
TTITLE39=Rote Abendwolken [Sieben Abendlieder - Op.103, No.11]
EXTD=
EXTT0=
EXTT1=
EXTT2=
EXTT3=
EXTT4=
EXTT5=
EXTT6=
EXTT7=
EXTT8=
EXTT9=
EXTT10=
EXTT11=
EXTT12=
EXTT13=
EXTT14=
EXTT15=
EXTT16=
EXTT17=
EXTT18=
EXTT19=
EXTT20=
EXTT21=
EXTT22=
EXTT23=
EXTT24=
EXTT25=
EXTT26=
EXTT27=
EXTT28=
EXTT29=
EXTT30=
EXTT31=
EXTT32=
EXTT33=
EXTT34=
EXTT35=
EXTT36=
EXTT37=
EXTT38=
EXTT39=
PLAYORDER=
